<svg xmlns="http://www.w3.org/2000/svg" viewBox="0 0 1080 560" width="900" font-family="Segoe UI, Helvetica, Arial, sans-serif">
  <!-- GENERATED by docs/diagrams/gen_c4.py — do not edit. -->
  <text x="24" y="34" font-size="16" font-weight="700" fill="#888888">Dynamic — the smart top bar (C4 dynamic)</text>
  <circle cx="160" cy="96" r="18" fill="#08427b"/>
  <rect x="60" y="110" width="200" height="66" rx="8" fill="#08427b"/>
  <g text-anchor="middle">
    <text x="160" y="132" font-size="13" font-weight="600" fill="#ffffff">santapong</text>
    <text x="160" y="147" font-size="10" font-style="italic" fill="#d0e0f0">[Person]</text>
    <text x="160" y="162" font-size="10" fill="#d0e0f0">moves the pointer</text>
  </g>
  <rect x="320" y="96" width="230" height="96" rx="8" fill="#85bbf0"/>
  <g text-anchor="middle">
    <text x="435" y="118" font-size="13" font-weight="600" fill="#0b2545">EdgeStrip (top)</text>
    <text x="435" y="133" font-size="10" font-style="italic" fill="#123a63">[4 px layer surface]</text>
    <text x="435" y="148" font-size="10" fill="#123a63">invisible; 180 ms dwell</text>
  </g>
  <rect x="320" y="260" width="230" height="96" rx="8" fill="#85bbf0"/>
  <g text-anchor="middle">
    <text x="435" y="282" font-size="13" font-weight="600" fill="#0b2545">Manager.bar_*</text>
    <text x="435" y="297" font-size="10" font-style="italic" fill="#123a63">[Python]</text>
    <text x="435" y="312" font-size="10" fill="#123a63">the smart-bar controller</text>
  </g>
  <rect x="650" y="96" width="230" height="96" rx="8" fill="#999999"/>
  <g text-anchor="middle">
    <text x="765" y="118" font-size="13" font-weight="600" fill="#ffffff">waybar</text>
    <text x="765" y="133" font-size="10" font-style="italic" fill="#d0e0f0">[panel]</text>
    <text x="765" y="148" font-size="10" fill="#d0e0f0">runs exclusive: false</text>
  </g>
  <rect x="650" y="260" width="230" height="96" rx="8" fill="#999999"/>
  <g text-anchor="middle">
    <text x="765" y="282" font-size="13" font-weight="600" fill="#ffffff">Hyprland</text>
    <text x="765" y="297" font-size="10" font-style="italic" fill="#d0e0f0">[compositor]</text>
    <text x="765" y="312" font-size="10" fill="#d0e0f0">hyprctl layers</text>
  </g>
  <text x="60" y="300" font-size="10" text-anchor="start" fill="#888888">1  pointer rests on the top edge</text>
  <text x="60" y="313" font-size="10" text-anchor="start" fill="#888888">2  after 180 ms, reveal</text>
  <text x="60" y="326" font-size="10" text-anchor="start" fill="#888888">3  probe: is it already shown?</text>
  <text x="60" y="339" font-size="10" text-anchor="start" fill="#888888">4  SIGUSR1 toggles it</text>
  <text x="60" y="352" font-size="10" text-anchor="start" fill="#888888">5  poll the cursor at 400 ms</text>
  <text x="60" y="365" font-size="10" text-anchor="start" fill="#888888">   ONLY while it is revealed</text>
  <text x="60" y="378" font-size="10" text-anchor="start" fill="#888888">6  pointer leaves -&gt; hide again</text>
  <line x1="260" y1="144" x2="316" y2="144" stroke="#888888" stroke-width="1.6"/>
  <polygon points="316.0,144.0 309.6,146.9 309.6,141.1" fill="#888888"/>
  <text x="288" y="136" font-size="10" text-anchor="middle" fill="#888888">1 dwell</text>
  <line x1="550" y1="144" x2="646" y2="144" stroke="#888888" stroke-width="1.6"/>
  <polygon points="646.0,144.0 639.6,146.9 639.6,141.1" fill="#888888"/>
  <text x="598" y="136" font-size="10" text-anchor="middle" fill="#888888">2 reveal</text>
  <line x1="435" y1="192" x2="435" y2="256" stroke="#888888" stroke-width="1.6"/>
  <polygon points="435.0,256.0 432.1,249.6 437.9,249.6" fill="#888888"/>
  <line x1="550" y1="308" x2="646" y2="308" stroke="#888888" stroke-width="1.6"/>
  <polygon points="646.0,308.0 639.6,310.9 639.6,305.1" fill="#888888"/>
  <text x="598" y="300" font-size="10" text-anchor="middle" fill="#888888">3 probe state</text>
  <line x1="550" y1="290" x2="646" y2="180" stroke="#888888" stroke-width="1.6"/>
  <polygon points="646.0,180.0 643.9,186.7 639.6,182.9" fill="#888888"/>
  <text x="600" y="250" font-size="10" text-anchor="middle" fill="#888888">4 SIGUSR1</text>
  <line x1="320" y1="290" x2="244" y2="182" stroke="#888888" stroke-width="1.6"/>
  <polygon points="244.0,182.0 250.0,185.6 245.3,188.9" fill="#888888"/>
  <text x="236" y="250" font-size="10" text-anchor="end" fill="#888888">6 hide</text>
  <text x="60" y="460" font-size="10" text-anchor="start" fill="#888888">waybar runs exclusive: false on purpose. An exclusive bar releases its zone when hidden, which would re-tile</text>
  <text x="60" y="473" font-size="10" text-anchor="start" fill="#888888">every window by 30 px on each reveal. Hidden means opacity 0 plus a layerrule ignore_alpha, so an</text>
  <text x="60" y="486" font-size="10" text-anchor="start" fill="#888888">unseen bar cannot eat a desktop click, and a respawned waybar is re-tucked by the 5 s sanity pass.</text>
</svg>
